<?xml version="1.0" standalone="no"?><!DOCTYPE svg PUBLIC "-//W3C//DTD SVG 1.1//EN" "http://www.w3.org/Graphics/SVG/1.1/DTD/svg11.dtd"><svg t="1719479327032" class="icon" viewBox="0 0 1579 1024" version="1.1" xmlns="http://www.w3.org/2000/svg" p-id="5844" xmlns:xlink="http://www.w3.org/1999/xlink" width="24.671875" height="16"><path d="M1579.885714 811.885714C1579.885714 929.031314 1226.210743 1024 789.942857 1024S0 929.031314 0 811.885714 353.674971 599.771429 789.942857 599.771429s789.942857 94.968686 789.942857 212.114285z" fill="#EBECF0" p-id="5845"></path><path d="M1316.571429 345.234286L1053.257143 29.257143H526.628571L263.314286 345.234286V819.2h1053.257143z" fill="#FFFFFF" p-id="5846"></path><path d="M583.826286 0c-35.722971 0-69.749029 14.584686-93.710629 39.350857l-6.290286 6.992457L219.428571 331.9808V394.971429h52.5312v-42.2912L523.264 81.1008a78.774857 78.774857 0 0 1 52.794514-28.086857l7.767772-0.351086h426.861714c20.801829 0 40.594286 8.221257 55.939657 23.434972L1322.569143 352.636343V394.971429H1375.085714v-62.990629L1111.595886 47.396571A131.218286 131.218286 0 0 0 1020.401371 0.365714L1010.688 0H583.826286z" fill="#AAADBD" p-id="5847"></path><path d="M1375.085714 336.457143H1007.367314v105.325714c0 29.0816-23.508114 52.662857-52.516571 52.662857H639.663543a52.589714 52.589714 0 0 1-52.516572-52.662857V336.457143H219.428571v421.302857c0 58.177829 47.045486 105.325714 105.0624 105.325714h945.532343C1328.040229 863.085714 1375.085714 815.937829 1375.085714 757.76V336.457143z" fill="#F2F3F5" p-id="5848" data-spm-anchor-id="a313x.search_index.0.i0.34973a81ZdQJhL" class="selected"></path><path d="M1007.367314 336.457143v105.325714c0 29.0816-23.508114 52.662857-52.516571 52.662857H639.663543a52.589714 52.589714 0 0 1-52.516572-52.662857V336.457143H219.428571v421.302857c0 58.177829 47.045486 105.325714 105.0624 105.325714h945.532343C1328.040229 863.085714 1375.085714 815.937829 1375.085714 757.76V336.457143H1007.367314z m-735.407543 52.662857h262.656v52.662857c-0.029257 55.120457 42.349714 100.937143 97.1776 105.0624l7.870172 0.263314h315.1872c54.974171 0.029257 100.673829-42.466743 104.784457-97.426285l0.263314-7.899429v-52.662857H1322.569143v368.64a52.618971 52.618971 0 0 1-46.372572 52.297143l-6.158628 0.365714H324.490971a52.575086 52.575086 0 0 1-52.165485-46.504228l-0.365715-6.144V389.12z" fill="#AAADBD" p-id="5849"></path></svg>